<?xml version="1.0" standalone="no"?>
<!DOCTYPE svg PUBLIC "-//W3C//DTD SVG 20010904//EN"
 "http://www.w3.org/TR/2001/REC-SVG-20010904/DTD/svg10.dtd">
<svg version="1.0" xmlns="http://www.w3.org/2000/svg"
 width="512.000000pt" height="512.000000pt" viewBox="0 0 512.000000 512.000000"
 preserveAspectRatio="xMidYMid meet">

<g transform="translate(0.000000,512.000000) scale(0.100000,-0.100000)"
fill="#000000" stroke="none">
<path d="M269 4190 c-60 -10 -136 -50 -176 -92 -18 -18 -45 -60 -60 -93 l-28
-60 0 -1385 0 -1385 28 -60 c36 -78 85 -127 161 -162 l61 -28 2305 0 2305 0
60 28 c78 36 127 85 162 161 l28 61 0 1385 0 1385 -28 61 c-35 76 -84 125
-162 161 l-60 28 -2275 1 c-1251 1 -2296 -2 -2321 -6z m4626 -131 c35 -18 59
-39 80 -74 l30 -48 0 -1371 0 -1371 -24 -48 c-28 -57 -76 -92 -146 -107 -35
-7 -747 -10 -2305 -8 l-2256 3 -49 26 c-35 18 -59 39 -80 74 l-30 48 0 1376 0
1376 27 46 c30 51 62 76 123 95 32 10 503 12 2310 11 l2271 -2 49 -26z"/>
<path d="M1393 3284 c-92 -33 -183 -150 -183 -236 0 -36 2 -38 33 -38 41 0
129 50 156 89 36 50 61 114 61 159 0 47 -3 48 -67 26z"/>
<path d="M1930 2626 l0 -586 95 0 95 0 0 199 0 199 178 4 178 3 76 38 c87 43
129 85 169 172 95 202 5 449 -190 527 -52 21 -75 23 -328 26 l-273 3 0 -585z
m515 410 c87 -37 125 -101 125 -211 0 -110 -38 -174 -125 -211 -30 -13 -77
-19 -182 -22 l-143 -4 0 237 0 237 143 -4 c105 -3 152 -9 182 -22z"/>
<path d="M933 2976 c-283 -89 -319 -498 -73 -831 84 -113 147 -135 263 -91 85
33 139 33 223 1 100 -38 142 -33 208 25 45 40 123 156 152 228 l22 55 -43 29
c-152 101 -168 315 -33 440 l42 38 -39 40 c-82 84 -201 101 -348 50 l-87 -30
-90 30 c-98 33 -133 35 -197 16z"/>
<path d="M3110 2904 c-144 -28 -240 -112 -265 -231 l-7 -33 86 0 c68 0 86 3
86 14 0 21 48 74 83 93 44 22 147 21 188 -3 51 -30 72 -67 77 -133 l4 -59 -53
-6 c-30 -3 -98 -8 -152 -11 -118 -7 -178 -22 -241 -59 -66 -38 -99 -93 -104
-170 -5 -84 12 -139 59 -191 109 -119 313 -119 436 -1 l53 52 0 -63 0 -63 85
0 85 0 0 328 0 328 -26 52 c-49 98 -145 150 -289 157 -44 2 -91 1 -105 -1z
m250 -522 c0 -128 -86 -215 -215 -216 -100 -1 -158 45 -158 125 0 50 39 94 95
110 40 10 257 28 271 21 4 -2 7 -20 7 -40z"/>
<path d="M3610 2887 c0 -2 67 -189 150 -417 82 -228 150 -426 150 -440 0 -14
-11 -48 -24 -77 -30 -63 -68 -86 -144 -87 l-53 -1 3 -70 3 -70 87 1 c72 1 95
5 142 28 63 31 114 92 150 183 33 80 336 933 336 944 0 5 -40 9 -90 9 l-89 0
-21 -67 c-112 -366 -194 -623 -196 -620 -3 2 -146 458 -210 670 -5 15 -19 17
-100 17 -52 0 -94 -1 -94 -3z"/>
</g>
</svg>
