<?xml version="1.0" encoding="utf-8"?>
<!-- Generator: Adobe Illustrator 24.3.0, SVG Export Plug-In . SVG Version: 6.00 Build 0)  -->
<svg version="1.1" id="Layer_1" xmlns="http://www.w3.org/2000/svg" xmlns:xlink="http://www.w3.org/1999/xlink" x="0px" y="0px"
	 viewBox="0 0 511.81 511.99" style="enable-background:new 0 0 511.81 511.99;" xml:space="preserve">
<style type="text/css">
	.st0{fill:#1CAE70;}
	.st1{fill:#FFFFFF;}
</style>
<ellipse class="st0" cx="255.91" cy="256" rx="255.91" ry="256"/>
<path class="st1" d="M226.84,289.87c0,0-18.14-76.03-106.27-114.05c0,0,59.71,42.82,98.11,118.46c0,0-112.51-8.45-122.88-150.14
	C95.8,144.14,263.7,166.9,226.84,289.87z"/>
<path class="st1" d="M251.32,316.08c0,0,31.3-112.22,128.06-181.34c0,0-86.59,108.77-114.24,187.39c0,0,64.8-25.92,110.59-91.58
	s50.11-148.61,50.11-148.61S222.9,125.33,251.32,316.08z"/>
<path class="st1" d="M172.98,292.46l-67.57,40.01c-9.81,5.81-17.55,14.7-21.45,25.41c-4.04,11.11-4.94,26.23,4.64,44.88
	c11.86,23.09,30.81,27.67,45.69,27.02c10.27-0.45,20.23-3.63,29.07-8.88l62.61-37.15L172.98,292.46z M147.06,416.59
	c-10.94,5.18-26.5,4.61-44.35-12.67c0.27-0.44,26.51,21.03,93.6-16.42C196.31,387.5,158,411.41,147.06,416.59z"/>
<path class="st1" d="M338.91,293.04l67.73,39.79c9.83,5.78,17.6,14.61,21.5,25.27c4.05,11.05,4.95,26.08-4.65,44.62
	c-11.88,22.96-30.88,27.51-45.8,26.87c-10.29-0.45-20.28-3.61-29.14-8.83l-62.76-36.94L338.91,293.04z M364.89,416.47
	c10.97,5.15,26.56,4.58,44.45-12.6c-0.27-0.43-26.57,20.91-93.82-16.32C315.52,387.54,353.92,411.31,364.89,416.47z"/>
</svg>
