<?xml version="1.0" encoding="UTF-8"?>
<svg width="24px" height="24px" viewBox="0 0 24 24" fill="none" xmlns="http://www.w3.org/2000/svg">
  <path d="M12 16C14.2091 16 16 14.2091 16 12C16 9.79086 14.2091 8 12 8C9.79086 8 8 9.79086 8 12C8 14.2091 9.79086 16 12 16Z" stroke="white" stroke-width="1.5" stroke-linecap="round" stroke-linejoin="round"/>
  <path d="M16.5 3.5H7.5C5.29086 3.5 3.5 5.29086 3.5 7.5V16.5C3.5 18.7091 5.29086 20.5 7.5 20.5H16.5C18.7091 20.5 20.5 18.7091 20.5 16.5V7.5C20.5 5.29086 18.7091 3.5 16.5 3.5Z" stroke="white" stroke-width="1.5"/>
  <path d="M17.5 8C18.0523 8 18.5 7.55228 18.5 7C18.5 6.44772 18.0523 6 17.5 6C16.9477 6 16.5 6.44772 16.5 7C16.5 7.55228 16.9477 8 17.5 8Z" fill="white"/>
</svg>
