<?xml version="1.0" encoding="UTF-8"?>
<svg width="60px" height="60px" viewBox="0 0 24 24" stroke-width="1.5" fill="none" xmlns="http://www.w3.org/2000/svg" color="#4CAF50">
  <path d="M9 6h11" stroke="#4CAF50" stroke-width="1.5" stroke-linecap="round" stroke-linejoin="round"></path>
  <path d="M9 10h11" stroke="#4CAF50" stroke-width="1.5" stroke-linecap="round" stroke-linejoin="round"></path>
  <path d="M9 14h11" stroke="#4CAF50" stroke-width="1.5" stroke-linecap="round" stroke-linejoin="round"></path>
  <path d="M9 18h11" stroke="#4CAF50" stroke-width="1.5" stroke-linecap="round" stroke-linejoin="round"></path>
  <path d="M5 6a1 1 0 11-2 0 1 1 0 012 0z" fill="#4CAF50" stroke="#4CAF50" stroke-width="1.5" stroke-linecap="round" stroke-linejoin="round"></path>
  <path d="M5 10a1 1 0 11-2 0 1 1 0 012 0z" fill="#4CAF50" stroke="#4CAF50" stroke-width="1.5" stroke-linecap="round" stroke-linejoin="round"></path>
  <path d="M5 14a1 1 0 11-2 0 1 1 0 012 0z" fill="#4CAF50" stroke="#4CAF50" stroke-width="1.5" stroke-linecap="round" stroke-linejoin="round"></path>
  <path d="M5 18a1 1 0 11-2 0 1 1 0 012 0z" fill="#4CAF50" stroke="#4CAF50" stroke-width="1.5" stroke-linecap="round" stroke-linejoin="round"></path>
</svg>
