<?xml version="1.0" standalone="no"?>
<!DOCTYPE svg PUBLIC "-//W3C//DTD SVG 20010904//EN"
 "http://www.w3.org/TR/2001/REC-SVG-20010904/DTD/svg10.dtd">
<svg version="1.0" xmlns="http://www.w3.org/2000/svg"
 width="800.000000pt" height="381.000000pt" viewBox="0 0 800.000000 381.000000"
 preserveAspectRatio="xMidYMid meet">

<g transform="translate(0.000000,381.000000) scale(0.100000,-0.100000)"
fill="#635BFF" stroke="none">
<path d="M4095 3154 c-82 -18 -176 -37 -207 -44 l-58 -11 0 -170 c0 -93 3
-169 8 -169 20 0 398 83 405 89 4 4 6 81 5 172 l-3 164 -150 -31z"/>
<path d="M2300 2946 l-195 -43 0 -744 0 -745 37 -76 c58 -116 151 -191 278
-224 99 -25 280 -12 383 28 l27 10 0 170 0 170 -32 -9 c-18 -4 -69 -8 -113 -8
-67 0 -85 4 -111 22 -62 45 -64 55 -64 427 l0 336 160 0 160 0 0 180 0 180
-160 0 -160 0 0 185 c0 102 -3 185 -7 184 -5 -1 -96 -20 -203 -43z"/>
<path d="M1375 2640 c-195 -31 -337 -127 -408 -277 -30 -65 -32 -74 -32 -188
0 -111 2 -124 28 -177 32 -65 108 -139 185 -181 29 -16 112 -51 185 -78 165
-62 210 -88 231 -133 21 -44 13 -78 -25 -110 -74 -63 -288 -38 -511 59 l-78
33 0 -198 0 -198 58 -21 c145 -53 295 -76 446 -68 200 11 332 63 434 171 88
95 107 147 107 306 0 118 -2 128 -29 185 -59 120 -159 190 -386 270 -58 21
-127 48 -153 62 -87 43 -100 127 -26 166 73 39 339 3 469 -63 22 -11 42 -20
45 -20 3 0 4 88 3 197 l-3 196 -54 18 c-133 46 -360 68 -486 49z"/>
<path d="M5059 2640 c-59 -10 -137 -44 -196 -86 -25 -18 -50 -31 -54 -29 -4 3
-10 25 -13 50 l-7 45 -185 0 -184 0 0 -990 c0 -545 3 -990 8 -990 4 0 98 18
210 42 l202 42 0 244 0 243 28 -19 c148 -105 338 -119 505 -38 92 45 154 99
210 184 169 253 192 692 51 977 -117 240 -339 365 -575 325z m93 -399 c93 -59
146 -175 155 -336 10 -199 -55 -353 -173 -411 -47 -23 -64 -26 -117 -22 -65 6
-116 25 -154 61 -23 20 -23 21 -23 343 l0 323 29 21 c52 36 94 49 167 50 61 0
76 -4 116 -29z"/>
<path d="M6356 2640 c-320 -58 -521 -322 -543 -715 -11 -199 37 -411 120 -537
50 -75 148 -165 223 -205 112 -60 199 -78 374 -77 132 1 169 5 251 27 53 14
119 37 147 51 l52 26 0 165 c0 91 -2 165 -4 165 -2 0 -24 -9 -48 -20 -137 -60
-405 -85 -508 -46 -104 39 -164 106 -176 199 l-7 47 417 0 416 0 0 134 c0 211
-41 389 -121 521 -42 70 -152 176 -217 209 -104 52 -264 76 -376 56z m159
-341 c26 -7 56 -28 85 -58 45 -46 62 -83 75 -168 l7 -43 -226 0 -226 0 0 28
c0 100 75 210 159 236 57 18 76 19 126 5z"/>
<path d="M3538 2626 c-60 -16 -122 -57 -144 -96 -10 -16 -22 -30 -26 -30 -4 0
-12 27 -19 60 l-12 60 -183 0 -184 0 0 -745 0 -745 210 0 210 0 0 504 0 504
32 33 c60 60 170 90 256 71 l42 -10 0 193 c0 152 -3 194 -13 198 -36 14 -126
15 -169 3z"/>
<path d="M3830 1875 l0 -745 210 0 210 0 0 745 0 745 -210 0 -210 0 0 -745z"/>
</g>
</svg>
