<?xml version="1.0" standalone="no"?>
<!DOCTYPE svg PUBLIC "-//W3C//DTD SVG 20010904//EN"
 "http://www.w3.org/TR/2001/REC-SVG-20010904/DTD/svg10.dtd">
<svg version="1.0" xmlns="http://www.w3.org/2000/svg"
 width="512.000000pt" height="512.000000pt" viewBox="0 0 512.000000 512.000000"
 preserveAspectRatio="xMidYMid meet">

<g transform="translate(0.000000,512.000000) scale(0.100000,-0.100000)"
fill="#1A1F71" stroke="none">
<path d="M3260 3329 c-235 -27 -445 -149 -520 -303 -72 -147 -60 -286 36 -402
44 -54 167 -136 307 -205 135 -66 177 -107 177 -174 0 -55 -25 -85 -98 -118
-40 -18 -65 -21 -162 -21 -132 0 -200 13 -324 60 -48 19 -91 34 -95 34 -6 0
-61 -294 -61 -326 0 -14 117 -49 230 -69 102 -19 339 -22 430 -6 95 17 209 57
276 96 165 97 267 300 236 466 -27 148 -106 228 -338 347 -228 117 -262 150
-230 227 19 44 91 80 181 90 80 8 223 -10 313 -41 41 -14 75 -24 78 -21 2 2
18 70 35 151 21 98 28 151 21 158 -16 16 -151 48 -247 58 -103 11 -140 11
-245 -1z"/>
<path d="M2178 3283 c-29 -3 -39 -9 -43 -26 -3 -12 -48 -260 -100 -552 -52
-291 -108 -602 -124 -690 -17 -88 -31 -168 -31 -177 0 -17 16 -18 205 -18 204
0 205 0 210 23 9 40 245 1418 245 1433 0 12 -28 14 -162 12 -90 -1 -180 -3
-200 -5z"/>
<path d="M4410 3280 c-71 -7 -94 -17 -126 -52 -12 -12 -146 -302 -299 -643
-153 -341 -291 -647 -307 -680 -15 -33 -28 -66 -28 -73 0 -10 47 -12 217 -10
l217 3 40 123 40 122 258 0 c142 0 258 -2 258 -4 0 -5 38 -193 45 -223 5 -23
6 -23 200 -23 107 0 195 4 195 8 0 5 -32 143 -71 308 -115 490 -269 1147 -269
1151 0 6 -303 0 -370 -7z m151 -725 c27 -126 49 -233 49 -237 0 -5 -74 -8
-165 -8 -91 0 -165 2 -165 5 0 7 201 538 208 550 4 6 10 -10 15 -35 4 -25 30
-148 58 -275z"/>
<path d="M1541 3263 c-5 -10 -68 -164 -140 -341 -73 -178 -136 -331 -142 -340
-5 -10 -36 -80 -68 -157 -66 -155 -60 -155 -85 -3 -18 106 -57 201 -122 299
-56 84 -190 228 -266 287 -57 44 -167 112 -180 112 -17 0 3 -79 172 -683 l174
-617 224 2 224 3 31 70 c17 39 163 364 324 723 161 360 293 655 293 658 0 2
-97 4 -215 4 -194 0 -215 -2 -224 -17z"/>
</g>
</svg>
